<svg width="30" height="31" viewBox="0 0 30 31" fill="none" xmlns="http://www.w3.org/2000/svg">
<g clip-path="url(#clip0_148_212)">
<path d="M15.0003 0.5H14.9997C6.71559 0.5 0 7.21559 0 15.4997V15.5003C0 23.7844 6.71559 30.5 14.9997 30.5H15.0003C23.2844 30.5 30 23.7844 30 15.5003V15.4997C30 7.21559 23.2844 0.5 15.0003 0.5Z" fill="black"/>
<path d="M11.9902 16.1962V13.2491H13.3587V16.1962C13.3587 18.6406 12.352 19.9537 10.3978 19.9537C9.37785 19.9537 8.62346 19.5346 8.12075 18.8211C7.63187 19.5334 6.86238 19.9537 5.84374 19.9537C3.88824 19.9537 2.88281 18.6406 2.88281 16.1962V13.2491H4.25191V16.1962C4.25191 17.8025 4.65647 18.7387 5.84374 18.7387C7.031 18.7387 7.4362 17.8025 7.4362 16.1962V13.2491H8.80844V16.1962C8.80844 17.8025 9.21363 18.7387 10.4009 18.7387C11.5882 18.7387 11.9902 17.8025 11.9902 16.1962Z" fill="white"/>
<path d="M20.2027 16.4617C20.2027 18.3612 18.6524 19.9537 16.5711 19.9537C14.4898 19.9537 12.9395 18.3612 12.9395 16.4617C12.9395 14.5622 14.4898 12.9698 16.5711 12.9698C18.6524 12.9698 20.2027 14.5622 20.2027 16.4617ZM18.8336 16.4617C18.8336 15.1209 17.8842 14.1149 16.5686 14.1149C15.253 14.1149 14.3035 15.1348 14.3035 16.4617C14.3035 17.8025 15.253 18.8086 16.5686 18.8086C17.8842 18.8086 18.8336 17.8025 18.8336 16.4617V16.4617Z" fill="white"/>
<path d="M23.4568 19.9537C22.7729 19.9537 21.8505 19.6743 21.1918 19.0319H19.8535V8.52457H21.222V13.8883C21.8367 13.3296 22.6062 12.9666 23.4713 12.9666C25.5382 12.9666 27.1168 14.2514 27.1168 16.5705C27.1174 18.4449 25.4966 19.9537 23.4568 19.9537ZM23.443 18.8362C24.7838 18.8362 25.7477 17.7886 25.7477 16.5712C25.7477 15.0347 24.7284 14.1123 23.4713 14.1123C22.2142 14.1123 21.222 15.0064 21.222 16.4592C21.222 17.8585 22.1299 18.8362 23.443 18.8362V18.8362Z" fill="white"/>
</g>
<defs>
<clipPath id="clip0_148_212">
<rect width="30" height="30" fill="white" transform="translate(0 0.5)"/>
</clipPath>
</defs>
</svg>
